<svg width="50" height="50" viewBox="0 0 50 50" fill="none" xmlns="http://www.w3.org/2000/svg">
<circle cx="25" cy="25" r="25" fill="#0C0C0C"/>
<path d="M12 25.4167C12 22.181 12 20.5631 12.5286 19.2869C13.2334 17.5853 14.5853 16.2334 16.2869 15.5286C17.5631 15 19.181 15 22.4167 15H26.5833C29.819 15 31.4369 15 32.7131 15.5286C34.4147 16.2334 35.7666 17.5853 36.4714 19.2869C37 20.5631 37 22.181 37 25.4167V25.4167C37 28.6524 37 30.2702 36.4714 31.5464C35.7666 33.248 34.4147 34.5999 32.7131 35.3047C31.4369 35.8333 29.819 35.8333 26.5833 35.8333H22.4167C19.181 35.8333 17.5631 35.8333 16.2869 35.3047C14.5853 34.5999 13.2334 33.248 12.5286 31.5464C12 30.2702 12 28.6524 12 25.4167V25.4167Z" stroke="#FBFBFB" stroke-width="1.10262" stroke-linejoin="round"/>
<path d="M11.9999 19.8611L16.8261 23.6146C20.0895 26.1527 21.7212 27.4217 23.585 27.6695C24.1927 27.7503 24.8083 27.7503 25.4159 27.6695C27.2798 27.4216 28.9114 26.1525 32.1746 23.6143L36.9999 19.8611" stroke="#FBFBFB" stroke-width="1.10262" stroke-linejoin="round"/>
</svg>
