<svg width="50" height="50" viewBox="0 0 50 50" fill="none" xmlns="http://www.w3.org/2000/svg">
<circle cx="25" cy="25" r="25" fill="#0C0C0C"/>
<path d="M25.1534 14.7729C19.5235 14.7729 14.9594 19.3036 16.0922 24.9668C16.8457 28.7339 20.6061 32.2504 23.0397 34.1829C23.835 34.8146 24.2327 35.1304 24.8503 35.2138C25.0215 35.2369 25.2854 35.2369 25.4566 35.2138C26.0741 35.1304 26.4718 34.8146 27.2672 34.183C29.7009 32.2505 33.4613 28.734 34.2147 24.9668C35.3472 19.3036 30.7834 14.7729 25.1534 14.7729Z" stroke="#FBFBFB" stroke-width="1.5" stroke-linejoin="round"/>
<path d="M28.5513 24.0041C28.5513 25.8807 27.0299 27.4021 25.1533 27.4021C23.2767 27.4021 21.7553 25.8807 21.7553 24.0041C21.7553 22.1274 23.2767 20.6061 25.1533 20.6061C27.0299 20.6061 28.5513 22.1274 28.5513 24.0041Z" stroke="#FBFBFB" stroke-width="1.5" stroke-linejoin="round"/>
</svg>
