<?xml version="1.0" standalone="no"?>
<!DOCTYPE svg PUBLIC "-//W3C//DTD SVG 20010904//EN"
 "http://www.w3.org/TR/2001/REC-SVG-20010904/DTD/svg10.dtd">
<svg version="1.0" xmlns="http://www.w3.org/2000/svg"
 width="3200.000000pt" height="3200.000000pt" viewBox="0 0 3200.000000 3200.000000"
 preserveAspectRatio="xMidYMid meet">
<metadata>
Created by potrace 1.14, written by Peter Selinger 2001-2017
</metadata>
<g transform="translate(0.000000,3200.000000) scale(0.100000,-0.100000)"
fill="#000000" stroke="none">
<path d="M3888 20155 c-1 -1 -43 -6 -93 -10 -49 -3 -101 -8 -115 -10 -53 -6
-126 -16 -150 -20 -14 -2 -45 -7 -70 -11 -25 -3 -54 -8 -65 -10 -11 -2 -36 -6
-55 -10 -102 -18 -401 -93 -474 -120 -22 -8 -48 -17 -56 -19 -15 -4 -135 -46
-180 -63 -14 -5 -27 -10 -30 -10 -3 -1 -36 -15 -75 -32 -38 -17 -86 -38 -105
-46 -19 -9 -98 -48 -175 -86 -77 -39 -150 -76 -162 -82 -13 -6 -23 -14 -23
-18 0 -5 -5 -8 -12 -8 -15 0 -301 -181 -311 -197 -4 -7 -13 -13 -18 -13 -6 0
-16 -6 -23 -12 -8 -7 -24 -20 -36 -28 -19 -13 -101 -76 -166 -128 -184 -148
-393 -354 -574 -567 -24 -27 -47 -51 -51 -53 -5 -2 -9 -9 -9 -15 0 -7 -13 -25
-28 -42 -15 -16 -43 -52 -62 -80 -45 -64 -46 -65 -73 -100 -13 -16 -34 -48
-47 -70 -14 -22 -28 -44 -32 -50 -25 -31 -128 -203 -128 -214 0 -5 -6 -16 -13
-23 -11 -12 -151 -280 -148 -285 0 -2 -13 -32 -29 -68 -16 -35 -32 -76 -36
-90 -3 -14 -10 -28 -15 -31 -5 -3 -7 -10 -4 -15 4 -5 1 -9 -4 -9 -6 0 -10 -3
-9 -7 0 -5 -1 -15 -5 -23 -3 -8 -11 -33 -18 -55 -6 -22 -15 -44 -19 -50 -4 -5
-11 -23 -15 -40 -12 -44 -12 -45 -15 -50 -3 -5 -3 -6 -15 -50 -4 -16 -10 -34
-14 -40 -3 -5 -6 -14 -7 -20 -1 -5 -12 -46 -24 -90 -12 -44 -24 -89 -26 -100
-2 -11 -6 -29 -8 -40 -20 -90 -19 -90 39 5 67 110 133 207 184 270 20 24 34
46 33 49 -2 2 1 7 6 10 5 3 32 33 59 66 27 33 75 87 107 120 31 33 74 78 95
100 21 22 60 60 87 85 43 39 68 61 164 141 10 8 31 24 45 35 15 10 41 31 58
46 18 15 36 28 40 28 4 0 20 11 35 25 15 14 31 25 35 25 5 0 23 11 41 25 18
14 36 25 40 25 4 0 16 9 28 20 12 11 28 20 35 20 7 0 13 4 13 9 0 5 8 11 18
14 21 8 140 73 158 88 7 6 19 12 26 13 7 2 49 20 93 42 44 21 82 39 85 39 3 1
19 7 35 14 164 70 493 172 600 186 17 2 41 6 55 9 13 3 42 8 65 11 22 4 54 9
70 12 250 45 725 37 1020 -17 28 -5 64 -11 80 -14 25 -3 103 -22 220 -52 11
-3 25 -6 30 -8 13 -3 146 -46 165 -53 8 -3 20 -7 25 -8 87 -21 458 -197 590
-281 50 -31 102 -64 117 -73 32 -20 186 -131 219 -159 13 -11 58 -48 99 -83
74 -61 344 -329 333 -329 -3 0 3 -8 13 -17 24 -22 144 -171 144 -179 0 -3 6
-12 14 -20 39 -38 246 -372 246 -395 0 -5 5 -9 10 -9 6 0 10 -5 10 -11 0 -7
20 -53 44 -103 38 -80 105 -240 131 -316 1 -3 4 -12 8 -20 15 -40 53 -169 73
-250 2 -8 8 -35 15 -60 15 -61 17 -72 34 -170 13 -78 18 -111 30 -210 26 -203
21 -502 -10 -675 -4 -22 -9 -47 -10 -55 -10 -53 -58 -226 -75 -265 -12 -30
-23 -59 -25 -71 -6 -23 -128 -259 -139 -266 -6 -4 -8 -8 -3 -8 4 0 -14 -30
-40 -67 -196 -284 -407 -480 -688 -638 -38 -22 -72 -40 -75 -41 -3 0 -35 -15
-72 -32 -105 -48 -290 -110 -381 -128 -12 -2 -33 -6 -47 -9 -47 -9 -85 -15
-140 -21 -30 -3 -68 -8 -85 -10 -76 -9 -291 -3 -390 10 -16 2 -55 7 -85 11
-30 3 -57 8 -60 10 -4 2 -22 7 -40 10 -18 3 -65 15 -104 26 -39 12 -81 23 -94
26 -12 3 -25 9 -28 14 -3 5 -16 9 -29 9 -13 0 -27 5 -30 10 -3 6 -13 10 -21
10 -26 0 -251 117 -342 178 -48 31 -91 59 -97 61 -5 2 -17 11 -25 20 -8 9 -33
30 -55 46 -69 51 -248 238 -323 337 -40 53 -72 99 -72 103 0 3 -11 21 -24 38
-14 18 -49 80 -79 138 -45 89 -60 122 -82 179 -1 3 -5 13 -8 23 -4 9 -10 25
-14 35 -3 9 -7 19 -8 22 -1 3 -4 12 -7 20 -3 8 -11 35 -18 60 -7 25 -16 56
-21 70 -4 14 -13 52 -18 85 -6 33 -13 74 -16 90 -29 139 -25 530 5 634 5 19 8
37 5 39 -5 5 -88 -122 -106 -162 -7 -14 -16 -26 -21 -26 -4 0 -7 -3 -6 -7 1
-5 -11 -33 -27 -63 -16 -30 -30 -57 -30 -60 -2 -8 -20 -50 -48 -110 -27 -61
-87 -231 -93 -268 -3 -12 -11 -42 -18 -65 -8 -23 -17 -60 -22 -82 -4 -22 -8
-45 -10 -52 -1 -6 -5 -29 -8 -50 -3 -21 -8 -51 -11 -66 -3 -15 -7 -50 -9 -76
-2 -27 -6 -52 -8 -57 -7 -11 -2 -442 5 -499 9 -72 16 -120 28 -175 6 -30 12
-64 14 -75 1 -11 10 -44 19 -74 8 -29 13 -57 10 -62 -3 -5 0 -9 6 -9 6 0 10
-6 9 -12 -1 -7 0 -20 3 -28 3 -8 16 -44 29 -80 12 -36 27 -76 32 -90 6 -14 11
-27 12 -30 15 -43 131 -283 155 -320 104 -159 156 -237 165 -246 5 -6 21 -26
35 -44 130 -174 415 -434 588 -535 17 -11 32 -23 32 -27 0 -4 4 -8 10 -8 5 0
33 -14 62 -31 71 -42 207 -110 293 -147 68 -29 244 -91 276 -97 8 -2 39 -10
67 -19 29 -8 52 -13 52 -10 0 3 8 1 18 -5 17 -9 80 -21 137 -27 17 -1 30 -3
30 -4 0 -2 6 -3 110 -16 143 -19 520 -7 695 22 19 3 55 8 80 11 59 7 85 11 85
13 0 1 14 3 30 5 17 2 42 6 58 9 15 3 39 9 55 12 78 16 245 57 307 75 86 26
185 58 205 66 8 3 22 7 30 9 80 16 504 210 705 324 61 34 316 199 325 210 3 3
21 17 40 30 30 21 203 155 237 185 122 104 349 326 450 440 56 63 187 228 238
299 11 16 25 33 31 40 6 6 13 16 15 21 2 6 43 70 92 142 48 73 87 134 87 136
0 2 22 42 48 88 160 278 344 746 397 1009 4 19 10 40 13 45 4 6 7 21 8 35 1
14 3 26 4 28 3 3 4 8 15 67 4 28 10 57 12 65 2 8 5 28 8 43 2 16 6 40 9 55 5
25 9 50 21 144 3 18 7 62 11 98 3 36 8 85 10 110 7 70 7 526 0 610 -3 41 -8
98 -10 125 -3 28 -7 64 -10 80 -2 17 -7 50 -10 75 -3 25 -8 56 -11 70 -2 13
-7 42 -10 65 -4 22 -13 72 -21 110 -8 39 -17 82 -19 98 -2 15 -7 31 -9 36 -3
5 -8 26 -12 47 -3 20 -10 49 -16 63 -5 14 -12 36 -14 47 -2 12 -14 53 -25 90
-12 38 -22 74 -23 79 -1 6 -4 15 -7 20 -4 6 -12 28 -18 50 -7 22 -16 49 -21
60 -4 11 -20 52 -35 90 -55 143 -175 401 -206 446 -10 14 -16 29 -12 33 3 3 1
6 -5 6 -7 0 -12 5 -12 10 0 6 -25 51 -55 101 -30 50 -55 94 -55 100 0 5 -4 9
-8 9 -5 0 -13 10 -19 23 -10 21 -180 267 -192 277 -3 3 -22 25 -41 50 -45 59
-61 78 -85 105 -11 13 -40 47 -65 76 -56 67 -308 319 -379 379 -30 25 -63 53
-75 64 -59 51 -236 186 -244 186 -6 0 -12 4 -14 9 -5 14 -231 162 -364 237
-173 98 -504 254 -539 254 -8 0 -15 5 -15 10 0 6 -3 9 -7 8 -9 -2 -82 21 -98
31 -5 3 -12 6 -15 6 -7 1 -212 65 -230 72 -8 3 -21 7 -29 9 -8 1 -51 13 -95
25 -82 22 -94 24 -156 34 -19 3 -48 9 -65 15 -16 5 -48 12 -70 14 -22 3 -67
10 -100 16 -66 11 -167 23 -202 24 -13 1 -23 3 -23 6 0 3 -21 6 -48 7 -87 4
-630 11 -634 8z"/>
<path d="M26988 18534 c-3 -2 -20 -6 -39 -8 -19 -3 -59 -14 -89 -26 -203 -79
-302 -225 -302 -440 1 -64 25 -159 55 -215 55 -100 197 -197 324 -222 47 -10
276 -9 319 0 129 28 257 112 315 207 52 84 72 212 55 335 -8 54 -53 165 -67
165 -5 0 -9 6 -9 13 0 16 -69 80 -125 115 -40 25 -117 56 -171 67 -33 8 -260
15 -266 9z"/>
<path d="M12828 18375 c-2 -2 -58 -5 -126 -7 -67 -2 -122 -6 -122 -9 0 -3 -12
-5 -27 -4 -16 1 -54 -4 -85 -11 -32 -6 -58 -9 -58 -7 0 3 -6 0 -13 -6 -8 -6
-16 -9 -19 -6 -2 2 -47 -7 -99 -21 -52 -14 -98 -27 -104 -28 -5 -2 -21 -7 -35
-13 -14 -6 -52 -20 -84 -32 -111 -41 -385 -183 -406 -211 -3 -3 -26 -21 -52
-38 -25 -18 -52 -38 -60 -44 -7 -7 -34 -30 -61 -51 -77 -62 -233 -223 -297
-306 -14 -18 -33 -41 -42 -52 -10 -10 -18 -21 -18 -24 0 -6 -41 -67 -51 -75
-18 -16 -151 -262 -148 -276 0 -4 -3 -10 -8 -13 -5 -3 -17 -26 -27 -51 -10
-25 -25 -59 -32 -75 -34 -79 -105 -327 -119 -415 -3 -19 -10 -60 -15 -90 -18
-108 -24 -208 -25 -405 0 -179 4 -260 21 -375 2 -19 6 -51 9 -70 12 -99 78
-350 111 -428 9 -20 17 -44 19 -52 2 -8 17 -46 35 -85 17 -38 31 -71 31 -73
-2 -5 74 -139 127 -226 94 -152 210 -287 403 -468 11 -10 23 -18 28 -18 5 0
11 -4 13 -9 4 -12 170 -129 244 -172 53 -32 211 -112 224 -115 3 0 19 -6 35
-13 41 -18 166 -62 185 -66 8 -2 40 -10 70 -19 30 -8 71 -18 90 -21 19 -3 51
-10 70 -15 44 -11 107 -20 185 -26 33 -3 69 -6 80 -7 11 -1 23 -6 27 -12 5 -6
8 -6 8 2 0 7 9 10 23 7 49 -10 360 -3 424 10 11 2 43 8 70 11 180 25 418 112
573 210 22 14 44 25 49 25 5 0 11 3 13 8 2 4 39 34 83 67 84 62 222 195 271
261 16 22 35 46 43 54 8 8 38 51 66 95 134 208 230 430 295 679 19 76 17 100
-8 101 -4 1 -18 7 -32 15 -14 7 -27 13 -30 13 -3 0 -15 3 -28 8 -13 5 -25 9
-28 9 -2 0 -23 8 -47 19 -58 25 -168 68 -194 76 -15 4 -23 1 -26 -12 -5 -17
-20 -82 -22 -93 0 -3 -4 -11 -8 -17 -5 -7 -6 -13 -3 -13 3 0 -4 -26 -15 -57
-11 -32 -22 -65 -24 -73 -2 -8 -4 -16 -5 -17 -2 -2 -3 -6 -5 -10 -21 -75 -152
-339 -197 -398 -5 -5 -28 -37 -53 -69 -65 -85 -167 -189 -240 -244 -6 -4 -27
-19 -47 -34 -20 -16 -41 -28 -46 -28 -6 0 -12 -3 -14 -7 -1 -5 -28 -20 -58
-35 -174 -85 -315 -114 -530 -110 -106 2 -277 28 -335 52 -11 4 -50 20 -87 35
-112 45 -282 162 -348 238 -8 10 -30 35 -48 55 -85 95 -209 313 -257 452 -1 3
-5 12 -8 20 -7 16 -56 175 -62 200 -18 80 -36 179 -41 218 -5 49 -11 87 -14
87 -7 0 -23 313 -23 460 0 151 10 364 19 407 3 13 7 43 9 68 7 64 12 95 30
180 9 41 18 84 21 95 2 11 15 56 28 100 69 223 160 409 276 559 33 43 179 186
189 186 6 0 11 4 11 9 0 19 213 144 264 156 6 1 18 5 26 8 77 31 220 53 320
50 207 -7 301 -25 444 -85 104 -45 298 -184 327 -235 6 -12 15 -21 18 -18 4 2
27 -24 51 -57 25 -34 51 -67 58 -75 7 -7 10 -13 5 -13 -4 0 -3 -4 3 -8 19 -13
159 -262 147 -262 -3 0 1 -10 9 -22 8 -13 29 -64 47 -113 l32 -91 239 1 c131
0 242 3 246 8 9 9 8 183 -1 197 -3 6 -3 10 2 10 9 0 8 213 -1 236 -3 8 -2 14
2 14 4 0 7 29 7 65 0 36 -4 65 -8 65 -5 0 -5 5 -2 11 4 6 7 43 7 84 0 41 -3
78 -7 84 -3 6 -3 11 2 11 4 0 8 29 8 65 0 36 -2 65 -5 65 -3 0 -4 21 -3 47 1
27 2 48 3 48 1 0 2 61 3 137 1 75 -1 134 -5 132 -4 -3 -4 5 0 17 5 12 7 33 4
46 l-4 23 -214 0 -214 0 -1 -22 c-3 -52 -7 -93 -9 -93 -2 0 -7 -44 -14 -126
-2 -31 -8 -76 -12 -100 -3 -24 -8 -62 -10 -84 -1 -22 -3 -40 -4 -40 -1 0 -3
-13 -5 -30 -1 -16 -3 -34 -4 -38 0 -5 -28 27 -60 70 -78 103 -157 178 -297
280 -27 20 -50 34 -66 39 -10 4 -18 11 -18 16 0 5 -4 7 -9 4 -5 -4 -11 -3 -13
2 -3 7 -85 48 -145 73 -13 5 -33 13 -45 19 -28 11 -126 39 -164 46 -15 3 -30
7 -34 9 -4 2 -31 7 -61 10 -54 6 -94 12 -94 15 0 1 -47 3 -105 6 -58 3 -110 6
-117 9 -6 2 -13 2 -15 0z"/>
<path d="M2730 18023 c0 -5 -17 -9 -37 -9 -45 -1 -167 -12 -203 -18 -14 -3
-41 -7 -60 -10 -37 -6 -118 -21 -160 -31 -14 -3 -36 -8 -50 -11 -14 -3 -34 -8
-45 -11 -11 -4 -26 -8 -33 -9 -25 -5 -207 -65 -224 -74 -10 -6 -22 -10 -27
-10 -4 0 -28 -9 -52 -19 -24 -11 -46 -20 -49 -19 -11 0 -270 -133 -275 -142
-4 -6 -11 -8 -16 -5 -5 4 -9 2 -9 -3 0 -5 -8 -12 -17 -16 -19 -6 -163 -98
-210 -134 -88 -68 -112 -87 -149 -118 -23 -18 -58 -49 -79 -69 -22 -19 -43
-35 -47 -35 -4 0 -8 -3 -8 -8 0 -4 -40 -48 -88 -97 -84 -87 -218 -247 -258
-310 -10 -16 -21 -32 -24 -35 -14 -14 -50 -71 -50 -80 0 -5 -4 -10 -10 -10 -5
0 -10 -7 -10 -15 0 -8 -3 -15 -8 -15 -4 0 -13 -15 -21 -32 -8 -18 -17 -35 -20
-38 -7 -6 -132 -247 -132 -255 0 -2 -6 -20 -15 -40 -8 -19 -14 -37 -15 -40 0
-2 -11 -29 -24 -60 -14 -30 -25 -58 -26 -63 -3 -13 -7 -27 -22 -72 -15 -45
-45 -159 -52 -196 -2 -10 -4 -19 -6 -19 -1 0 -3 -9 -5 -20 -1 -11 -10 -63 -19
-115 -9 -52 -18 -111 -20 -130 -2 -19 -4 -35 -5 -35 -1 0 -4 -40 -7 -90 -12
-179 -7 -400 12 -550 11 -84 26 -173 35 -197 5 -16 6 -28 3 -28 -3 0 1 -8 8
-17 8 -9 9 -14 3 -10 -8 4 -7 -7 2 -34 8 -22 16 -50 18 -62 3 -12 5 -23 7 -24
1 -2 2 -11 4 -20 1 -10 7 -30 13 -46 7 -15 14 -38 16 -50 23 -110 234 -549
304 -629 8 -10 12 -18 8 -18 -4 0 4 -13 17 -30 14 -16 28 -39 32 -50 3 -11 11
-20 16 -20 5 0 9 -6 9 -13 0 -8 9 -22 20 -32 11 -10 20 -22 20 -26 0 -9 154
-215 202 -271 13 -15 31 -37 40 -49 57 -73 265 -289 374 -388 100 -91 117
-105 199 -171 44 -36 81 -68 83 -72 2 -5 10 -8 17 -8 7 0 15 -3 17 -7 6 -16
202 -153 217 -153 5 0 11 -3 13 -7 4 -10 88 -65 88 -58 0 6 -110 156 -121 165
-3 3 -9 12 -13 20 -3 8 -25 42 -47 75 -22 33 -42 68 -45 78 -4 9 -10 17 -15
17 -5 0 -9 6 -9 14 0 8 -6 21 -12 28 -17 18 -148 284 -148 301 0 7 -4 17 -8
22 -13 15 -103 269 -117 331 -2 10 -11 44 -19 74 -8 30 -17 67 -20 82 -2 15
-12 63 -20 105 -9 43 -18 101 -20 128 -3 28 -7 59 -10 71 -21 99 -21 547 0
648 3 12 7 44 9 71 3 28 9 73 15 100 5 28 12 64 15 80 4 17 8 39 10 50 7 40
54 211 69 254 9 24 18 55 21 69 2 14 8 28 12 31 4 3 10 15 11 26 16 91 255
564 312 615 3 3 11 17 17 33 7 15 17 27 23 27 5 0 10 7 10 15 0 8 5 15 10 15
6 0 10 5 10 11 0 6 6 16 13 23 6 7 21 25 32 40 11 15 28 37 38 49 10 12 28 35
40 51 56 74 362 371 442 428 5 4 24 18 40 31 86 68 383 257 404 257 5 0 20 9
35 21 14 11 26 18 26 15 0 -3 36 13 79 34 44 22 85 40 91 40 6 0 22 7 35 16
14 9 25 13 25 10 0 -4 11 1 25 10 14 9 25 13 25 9 0 -4 6 -3 13 2 6 6 30 16
52 22 22 7 49 16 60 21 19 8 156 47 193 55 9 2 29 8 44 14 15 6 35 8 43 5 8
-4 15 -2 15 3 0 5 6 10 13 10 6 1 44 8 82 16 156 34 225 41 420 41 88 0 187
-4 220 -8 33 -5 71 -10 85 -12 34 -4 82 -13 99 -20 8 -2 30 -7 50 -10 36 -6
149 -38 186 -54 11 -4 27 -10 35 -13 8 -3 40 -15 70 -27 l55 -22 -25 29 c-75
85 -190 194 -310 297 -55 47 -179 136 -189 136 -6 0 -11 5 -11 10 0 6 -7 13
-17 17 -9 4 -54 30 -100 59 -133 84 -477 244 -523 244 -6 0 -18 4 -28 10 -14
8 -65 24 -147 46 -25 7 -102 26 -120 30 -101 20 -179 34 -225 40 -30 3 -64 8
-75 10 -68 13 -391 21 -402 10 -3 -3 -14 -1 -24 5 -11 5 -19 6 -19 2z"/>
<path d="M16487 17143 c-2 -1 -67 -7 -217 -19 -19 -1 -35 -3 -35 -4 0 -2 -34
-9 -75 -15 -48 -7 -210 -49 -295 -76 -38 -12 -74 -24 -80 -25 -87 -24 -293
-126 -405 -202 l-85 -57 0 -330 0 -329 360 -1 c198 0 369 1 380 3 19 3 20 10
18 257 l-1 253 37 25 c57 38 163 82 221 91 3 1 11 5 18 9 7 5 12 4 12 -2 0 -7
8 -7 25 -1 25 10 254 8 290 -3 11 -3 34 -8 50 -12 96 -24 196 -106 240 -196
49 -101 62 -199 61 -470 l-1 -244 -45 -7 c-25 -3 -71 -9 -103 -13 -32 -3 -68
-9 -80 -11 -12 -3 -51 -9 -87 -15 -36 -5 -72 -11 -80 -14 -8 -2 -33 -7 -55
-10 -23 -3 -52 -8 -65 -10 -14 -3 -45 -10 -70 -15 -25 -5 -85 -19 -135 -30
-49 -12 -99 -23 -110 -25 -11 -2 -20 -4 -20 -5 0 -1 -8 -3 -17 -6 -21 -5 -27
-6 -88 -23 -44 -12 -73 -21 -115 -37 -11 -4 -28 -9 -38 -11 -10 -1 -31 -10
-47 -18 -16 -8 -34 -15 -40 -15 -16 0 -139 -57 -311 -145 -10 -5 -19 -13 -19
-17 0 -5 -4 -8 -10 -8 -21 0 -154 -111 -210 -176 -53 -62 -135 -208 -144 -256
-1 -7 -9 -40 -16 -73 -21 -95 -17 -303 9 -405 24 -95 69 -195 115 -255 52 -67
132 -143 193 -182 15 -9 30 -20 33 -23 5 -5 68 -36 130 -63 51 -23 173 -57
219 -62 23 -2 45 -6 50 -9 5 -4 40 -8 78 -11 37 -2 70 -5 73 -5 23 -7 246 3
315 14 49 7 101 18 115 23 8 3 20 7 25 8 130 30 329 146 440 259 72 73 165
195 165 217 0 7 3 9 8 5 4 -4 7 -110 7 -234 l0 -227 30 -2 c89 -5 246 -5 252
0 3 4 14 2 24 -3 12 -7 20 -7 24 0 4 6 12 7 22 1 9 -5 29 -5 44 -1 15 5 30 6
32 4 7 -7 167 -8 174 -1 3 4 14 2 24 -3 12 -7 20 -7 24 0 4 6 10 8 15 5 6 -4
236 -7 310 -4 8 1 44 0 80 0 36 -1 89 0 118 1 28 2 52 -1 52 -5 0 -5 4 -5 10
-2 5 3 9 25 8 48 -2 23 1 48 5 55 5 6 5 12 0 12 -4 0 -8 29 -8 65 0 36 2 65 5
65 3 0 6 9 6 20 0 11 -3 20 -6 20 -3 0 -5 14 -4 31 2 35 0 36 -81 43 -124 10
-216 37 -253 73 -48 46 -47 13 -48 958 -1 490 -5 913 -8 940 -9 78 -13 95 -30
165 -17 66 -122 290 -137 290 -4 0 -10 8 -14 19 -6 19 -143 161 -156 161 -4 0
-14 6 -22 14 -44 44 -211 133 -322 171 -65 23 -202 56 -237 58 -16 1 -28 4
-28 7 0 3 -8 6 -17 6 -10 1 -40 4 -68 8 -79 10 -402 26 -408 19z m522 -2085
l-1 -393 -30 -50 c-50 -81 -98 -137 -190 -221 -62 -57 -194 -122 -262 -129
-12 -1 -21 -4 -21 -5 0 -1 -31 -3 -70 -4 -71 -2 -144 7 -180 22 -195 81 -276
208 -276 432 0 41 3 93 7 114 9 58 53 176 78 209 57 76 179 187 206 187 5 0
10 3 10 8 0 7 65 39 83 41 4 0 15 7 23 16 9 8 23 15 33 15 9 0 21 4 27 9 30
28 439 133 541 140 l22 1 0 -392z"/>
<path d="M20927 17144 c-1 -1 -36 -5 -77 -8 -143 -12 -275 -44 -385 -92 -22
-10 -47 -19 -55 -20 -8 -2 -16 -8 -18 -13 -2 -6 -10 -11 -18 -11 -8 0 -27 -8
-42 -19 -15 -10 -51 -33 -79 -51 -29 -19 -53 -37 -53 -41 0 -4 -8 -10 -18 -13
-21 -7 -126 -108 -187 -180 -22 -26 -45 -53 -51 -59 -6 -7 -30 -40 -53 -75
-24 -34 -44 -62 -45 -62 -1 0 -2 126 -2 281 1 154 -1 285 -4 290 -5 7 -47 10
-125 8 -11 0 -269 0 -573 1 -304 0 -556 -1 -560 -4 -4 -2 -7 -80 -7 -173 l0
-168 70 -18 c39 -9 82 -20 97 -22 41 -8 127 -43 159 -65 14 -11 35 -39 46 -62
19 -42 20 -70 19 -1113 -1 -1174 2 -1110 -61 -1154 -43 -29 -123 -58 -157 -56
-16 1 -28 -1 -28 -4 0 -3 -31 -6 -70 -5 -44 0 -70 -3 -71 -10 -1 -6 -2 -82 -3
-168 l-1 -158 55 0 c30 -1 127 0 215 0 88 1 185 0 215 -1 30 -1 62 -1 70 -1
51 3 265 1 268 -3 2 -2 14 0 26 5 12 4 29 4 38 -1 11 -6 19 -5 23 1 4 6 10 8
15 5 5 -3 111 -5 237 -5 125 1 253 0 283 -1 30 -1 62 -1 70 0 8 0 50 1 92 1
l77 0 -2 167 -2 168 -60 2 c-131 4 -234 17 -267 35 -17 8 -18 62 -15 934 2
903 2 926 21 940 11 8 16 14 10 14 -5 0 -5 4 1 8 6 4 21 24 35 44 14 21 28 38
33 38 4 0 7 4 7 10 0 10 52 72 84 99 10 9 28 27 40 39 27 31 150 122 164 122
6 0 12 3 14 8 2 6 70 42 88 47 3 1 32 10 65 20 53 16 133 28 175 25 8 0 24 0
35 0 11 0 45 -5 75 -11 169 -34 250 -142 287 -379 3 -19 6 -462 7 -984 1 -873
0 -950 -16 -968 -9 -11 -29 -21 -45 -23 -15 -2 -28 -4 -28 -5 0 -5 -92 -12
-170 -13 l-90 -2 -5 -40 c-3 -22 -3 -82 0 -133 3 -51 2 -101 -1 -110 -15 -43
-2 -51 97 -54 51 -2 103 -1 115 2 12 3 48 3 79 0 31 -3 67 -3 79 0 12 3 76 3
142 0 66 -3 128 -2 137 1 9 4 25 3 34 -2 10 -6 19 -5 23 1 4 6 10 8 15 5 5 -3
111 -5 237 -5 125 1 253 0 283 -1 30 -1 62 -1 70 -1 51 3 265 1 268 -3 2 -2
14 0 26 5 12 4 29 4 38 -1 11 -6 19 -5 23 1 4 6 11 8 16 4 6 -3 8 58 7 163
l-3 168 -55 1 c-83 3 -181 14 -194 22 -6 4 -13 7 -16 8 -39 7 -90 51 -117 100
-8 15 -11 260 -11 920 0 495 -3 925 -6 955 -20 171 -42 257 -96 375 -88 192
-212 322 -389 407 -47 23 -88 42 -91 42 -3 0 -25 8 -50 17 -38 14 -102 30
-180 44 -38 7 -249 22 -253 18z"/>
<path d="M22685 17082 l-210 -2 2 -163 c1 -89 2 -165 2 -168 1 -3 10 -5 22 -4
44 3 146 -16 198 -37 30 -12 70 -38 88 -57 29 -31 73 -107 79 -136 3 -12 81
-231 94 -260 15 -38 35 -90 36 -100 1 -5 12 -35 24 -65 12 -30 24 -62 25 -70
4 -17 62 -174 75 -205 5 -11 23 -60 40 -110 17 -49 38 -108 47 -130 8 -22 37
-101 63 -175 73 -203 108 -299 115 -310 4 -6 9 -22 11 -37 3 -15 11 -34 17
-42 7 -8 11 -17 11 -20 -2 -7 3 -23 26 -86 11 -27 60 -165 110 -305 103 -285
163 -451 191 -525 10 -27 20 -57 21 -65 2 -8 6 -17 10 -20 4 -3 9 -15 12 -25
13 -60 23 -72 59 -66 14 2 51 2 135 0 45 -1 85 1 89 4 3 4 14 2 24 -3 12 -7
20 -7 24 0 4 6 10 8 14 5 12 -7 250 -9 258 -2 3 4 14 2 24 -3 11 -7 20 -7 24
0 3 5 15 6 28 1 12 -5 31 -5 41 -1 11 3 36 4 55 1 20 -4 52 -4 71 -1 19 4 42
3 51 -1 13 -6 20 5 39 59 13 37 45 126 72 197 27 72 50 137 51 145 2 8 9 25
15 38 7 12 10 22 7 22 -3 0 0 10 7 23 6 12 13 27 14 32 4 16 73 208 83 230 5
11 19 47 30 80 11 33 31 92 46 130 30 81 32 87 34 98 0 4 8 21 16 37 8 16 15
32 14 35 -1 6 28 88 42 120 5 11 27 72 49 135 22 63 43 122 47 130 3 8 7 20 9
25 8 26 36 102 44 120 5 11 16 40 24 65 8 25 19 56 25 70 5 14 42 115 81 225
40 110 82 227 95 260 12 33 32 89 44 125 12 36 26 73 31 82 6 10 10 23 10 29
0 11 14 46 55 134 58 128 143 180 324 199 l26 3 0 162 c1 89 -3 165 -7 167 -7
4 -395 6 -1058 4 l-145 0 -1 -168 0 -168 41 0 c42 -1 156 -13 190 -21 11 -2
34 -7 50 -10 17 -2 35 -8 40 -13 6 -4 22 -10 36 -13 42 -10 78 -44 74 -69 -3
-12 -33 -103 -69 -202 -35 -100 -90 -253 -120 -341 -31 -88 -61 -169 -65 -180
-5 -11 -19 -51 -32 -90 -12 -38 -24 -74 -28 -80 -3 -5 -6 -14 -7 -20 -2 -9
-75 -213 -91 -255 -3 -8 -5 -19 -4 -24 1 -4 -2 -13 -7 -20 -5 -6 -22 -49 -37
-96 -16 -47 -31 -89 -35 -95 -4 -5 -10 -19 -13 -30 -3 -11 -31 -92 -62 -180
-31 -88 -57 -164 -59 -170 -1 -5 -5 -16 -9 -22 -5 -7 -10 -21 -12 -30 -11 -48
-80 -233 -86 -233 -6 0 -26 46 -34 80 -1 3 -4 12 -8 20 -3 8 -22 62 -42 120
-20 58 -46 130 -57 160 -11 30 -21 62 -23 70 -2 8 -18 53 -35 100 -18 47 -38
105 -46 130 -12 36 -69 198 -91 260 -4 8 -7 20 -9 25 -4 17 -55 159 -64 180
-5 11 -16 45 -26 75 -9 30 -21 61 -27 68 -5 6 -7 12 -4 12 4 0 -2 20 -13 45
-11 25 -17 45 -13 45 3 0 -1 7 -8 17 -8 9 -13 17 -11 17 2 1 1 8 -2 16 -3 8
-23 69 -46 135 -54 157 -51 149 -52 155 0 3 -4 13 -10 23 -5 10 -11 26 -13 35
-4 19 -42 127 -55 157 -5 11 -14 38 -21 60 -6 22 -14 45 -18 50 -3 6 -7 16 -8
23 -2 6 -4 18 -6 25 -1 6 -6 18 -10 25 -10 15 11 36 38 39 11 1 54 6 95 12 80
9 157 14 258 14 l62 1 1 60 c2 104 -1 269 -5 273 -4 4 -1252 9 -1521 5z"/>
<path d="M26395 17082 l-150 -2 1 -171 c1 -93 4 -172 6 -174 2 -3 15 -7 29 -9
13 -2 24 -5 24 -6 0 -2 30 -8 70 -15 33 -5 67 -12 75 -15 3 -1 8 -2 13 -1 4 0
7 -4 7 -10 0 -5 3 -8 8 -6 11 7 84 -25 115 -49 15 -12 32 -34 39 -50 15 -38
20 -2165 4 -2204 -30 -74 -121 -121 -243 -124 -13 -1 -23 -3 -23 -6 0 -3 -27
-5 -60 -4 l-60 0 -1 -35 c0 -20 0 -94 0 -166 l0 -130 28 -2 c15 -1 114 -2 218
-2 105 0 215 -1 245 -2 30 -1 62 -1 70 -1 51 3 265 1 268 -3 2 -2 14 0 26 5
12 4 29 4 38 -1 11 -6 19 -5 23 1 4 6 10 8 15 5 6 -4 354 -7 470 -4 8 1 44 0
80 0 36 -1 107 0 159 1 l94 3 -1 160 c0 88 -1 162 -1 165 -1 3 -25 7 -53 8
-100 4 -148 9 -155 15 -3 4 -16 7 -28 7 -11 0 -44 11 -72 25 -95 48 -87 -88
-88 1442 0 738 -3 1344 -6 1348 -7 6 -927 12 -1184 7z"/>
<path d="M28340 17082 c-68 -1 -127 -7 -130 -11 -4 -7 -5 -299 -1 -321 1 -4
11 -6 24 -6 89 -2 194 -28 228 -58 11 -9 22 -16 26 -16 12 0 79 -77 168 -194
50 -65 118 -155 153 -200 34 -44 71 -92 81 -106 35 -46 110 -145 119 -155 4
-5 66 -86 136 -180 71 -93 136 -176 144 -182 9 -7 13 -13 9 -13 -6 0 7 -18 38
-54 6 -6 27 -32 48 -59 l39 -47 -33 -43 c-57 -73 -124 -152 -132 -155 -4 -2
-5 -8 -1 -13 3 -5 1 -9 -4 -9 -6 0 -45 -44 -88 -97 -43 -54 -81 -100 -84 -103
-3 -3 -42 -50 -87 -105 -44 -55 -89 -110 -99 -122 -21 -23 -28 -33 -89 -108
-21 -28 -42 -52 -45 -55 -3 -3 -24 -27 -45 -55 -22 -27 -42 -52 -45 -55 -3 -3
-18 -21 -34 -40 -72 -88 -157 -170 -226 -216 -73 -49 -111 -63 -185 -71 -27
-3 -52 -7 -53 -8 -2 -2 -4 -75 -4 -162 l1 -158 28 -2 c15 -1 114 -2 218 -2
105 0 215 -1 245 -2 30 -1 62 -1 70 -1 51 3 265 1 268 -3 2 -2 14 0 26 5 12 4
29 4 38 -1 9 -5 19 -6 21 -2 3 5 40 6 84 3 43 -3 114 -3 158 0 l80 5 0 157 c0
86 -3 159 -5 162 -3 3 -43 6 -88 8 -45 2 -82 5 -82 8 0 3 -16 6 -35 7 -73 6
-195 70 -195 104 0 4 24 36 53 71 28 36 66 82 82 103 17 21 35 43 40 49 9 10
55 67 105 130 8 10 27 33 41 50 14 17 55 67 90 111 36 44 106 131 157 193 l91
113 48 -62 c26 -34 56 -71 66 -83 10 -11 26 -33 35 -48 9 -16 20 -28 24 -28 4
0 14 -12 22 -27 8 -16 25 -40 38 -54 13 -15 34 -41 48 -59 90 -117 244 -316
249 -320 3 -3 33 -41 65 -85 33 -44 66 -85 74 -92 8 -7 12 -19 9 -27 -10 -26
-183 -53 -358 -55 l-77 -1 0 -164 -1 -164 34 -4 c18 -2 42 -1 52 3 10 3 26 3
35 -2 10 -6 19 -5 23 1 4 6 10 8 15 5 6 -4 354 -7 470 -4 17 1 139 0 190 -1
19 -1 36 -3 38 -5 2 -2 14 0 26 5 13 4 29 4 36 0 8 -5 19 -5 25 0 6 5 17 5 24
1 8 -5 26 -5 42 -1 15 5 30 6 32 4 7 -7 167 -8 174 -1 3 4 14 2 24 -3 12 -7
20 -7 24 0 4 6 10 8 14 5 12 -7 250 -9 258 -2 3 4 14 2 24 -3 11 -7 20 -7 24
0 3 6 15 6 30 0 13 -5 26 -6 29 -1 3 4 27 5 53 2 99 -12 93 -22 93 165 l0 164
-32 1 c-85 3 -132 15 -200 51 -53 28 -148 118 -187 177 -8 13 -24 34 -33 45
-16 18 -52 65 -198 256 -14 18 -33 42 -42 53 -10 11 -18 23 -18 26 0 3 -10 17
-22 31 -13 14 -40 48 -60 75 -21 28 -43 57 -50 65 -8 8 -34 42 -58 75 -53 70
-71 93 -87 110 -7 8 -13 18 -13 23 0 6 -4 12 -8 14 -4 2 -37 41 -72 88 -76
100 -72 95 -110 140 -16 19 -30 38 -30 41 0 3 -11 19 -25 35 -26 31 -30 40
-17 46 4 2 91 104 192 228 102 124 189 230 195 237 5 7 15 18 20 25 36 45 190
234 195 238 3 3 29 34 58 70 181 222 259 297 355 338 25 11 96 23 152 26 19 1
20 8 21 164 0 90 -3 165 -7 168 -6 3 -693 6 -1164 4 l-40 0 1 -152 c1 -84 2
-160 3 -169 1 -11 11 -15 34 -15 17 -1 68 -4 112 -8 44 -5 86 -8 93 -9 6 0 12
-4 12 -9 0 -5 4 -7 8 -4 4 2 33 -8 63 -22 37 -19 55 -34 57 -50 2 -16 -37 -72
-144 -204 -81 -101 -151 -184 -156 -186 -4 -2 -8 -10 -8 -18 0 -8 -4 -14 -9
-14 -4 0 -20 -17 -34 -37 -14 -21 -37 -51 -52 -68 -15 -16 -36 -43 -48 -58
-12 -15 -30 -38 -40 -50 -10 -12 -31 -37 -45 -56 -15 -18 -37 -44 -48 -58
l-21 -25 -29 38 c-16 21 -34 45 -41 54 -31 39 -162 211 -198 258 -21 28 -43
52 -47 52 -4 0 -8 6 -8 13 0 7 -13 27 -29 45 -17 17 -28 32 -25 32 3 0 -5 11
-18 24 -13 13 -43 52 -68 86 -25 35 -50 68 -55 74 -26 27 -115 148 -115 157 0
5 6 9 13 10 6 0 19 2 27 4 56 12 85 16 165 21 50 4 117 7 150 8 l60 1 3 168 2
167 -47 0 c-841 4 -1485 4 -1583 2z"/>
<path d="M4167 16763 c-4 -3 -35 -7 -69 -8 -60 -3 -110 -8 -208 -22 -25 -3
-54 -7 -65 -9 -11 -1 -20 -3 -20 -4 0 -1 -13 -4 -30 -6 -16 -3 -63 -16 -104
-30 -376 -129 -684 -400 -851 -749 -41 -86 -57 -122 -65 -145 -1 -3 -4 -12 -8
-20 -7 -19 -34 -118 -41 -150 -3 -14 -7 -36 -10 -49 -14 -63 -20 -148 -21
-271 0 -191 17 -300 70 -455 15 -44 28 -86 28 -92 0 -7 4 -13 9 -13 4 0 8 -9
8 -20 0 -11 5 -20 10 -20 6 0 10 -7 10 -15 0 -8 14 -37 30 -65 17 -28 30 -53
30 -56 0 -3 27 -45 60 -92 59 -87 195 -235 280 -305 25 -20 50 -41 57 -47 7
-5 15 -10 18 -10 3 0 27 -16 54 -35 26 -19 51 -35 55 -35 3 0 24 -11 46 -25
69 -43 273 -122 365 -140 11 -2 34 -7 50 -10 69 -14 92 -17 132 -19 24 0 43
-3 43 -6 0 -7 190 -4 265 4 91 10 168 25 255 51 30 9 62 18 70 20 55 14 251
109 325 158 129 87 311 255 364 337 8 14 26 36 38 50 13 14 23 28 23 32 0 4
13 26 29 50 36 53 101 185 101 204 0 8 5 14 10 14 6 0 9 3 8 8 -1 4 8 36 19
72 75 225 95 471 57 695 -4 22 -8 47 -9 55 0 9 -4 21 -8 27 -4 6 -9 24 -11 40
-5 40 -58 197 -68 201 -4 2 -8 11 -8 19 0 9 -9 31 -21 49 -11 19 -17 34 -13
34 4 0 0 8 -8 18 -8 9 -27 40 -43 67 -70 123 -242 320 -344 395 -19 14 -47 35
-62 48 -15 12 -31 22 -36 22 -6 0 -18 9 -28 20 -10 11 -24 20 -30 20 -7 0 -18
7 -25 15 -7 9 -15 13 -18 11 -3 -3 -17 3 -31 12 -112 77 -407 162 -576 167
-34 1 -66 4 -72 8 -5 4 -13 4 -16 0z"/>
</g>
</svg>
